<?xml version="1.0" encoding="UTF-8"?>
<svg version="1.1" xmlns="http://www.w3.org/2000/svg" width="585" height="585">
<path d="M0 0 C2.31 0 4.62 0 7 0 C7 0.66 7 1.32 7 2 C7.66 2 8.32 2 9 2 C9 3.32 9 4.64 9 6 C8.34 6 7.68 6 7 6 C7.33 6.99 7.66 7.98 8 9 C8.99 8.67 9.98 8.34 11 8 C11 7.34 11 6.68 11 6 C16.29411765 2 16.29411765 2 20 2 C20 1.34 20 0.68 20 0 C22.475 0.495 22.475 0.495 25 1 C25 1.99 25 2.98 25 4 C27.475 4.495 27.475 4.495 30 5 C29.44687265 9.02992782 28.8441938 13.02022924 28 17 C29.98 17.33 31.96 17.66 34 18 C34 18.66 34 19.32 34 20 C34.66 20 35.32 20 36 20 C36.495 22.475 36.495 22.475 37 25 C37.5775 24.21625 38.155 23.4325 38.75 22.625 C42.1154113 18.69868682 44.98410104 17.77974334 50.0625 17.3125 C50.91972656 17.22613281 51.77695312 17.13976562 52.66015625 17.05078125 C55 17 55 17 58 18 C58 20.97 58 23.94 58 27 C58.12375 25.9275 58.2475 24.855 58.375 23.75 C59.14134287 20.96073735 59.67508031 20.18820172 62.21875 18.71484375 C64.78989098 17.72041716 67.38167894 16.86053854 70 16 C71.34577934 15.35882904 72.68424262 14.7007173 74 14 C74 13.34 74 12.68 74 12 C74.99 12 75.98 12 77 12 C77 12.66 77 13.32 77 14 C78.32 14.33 79.64 14.66 81 15 C81 15.99 81 16.98 81 18 C80.34 18 79.68 18 79 18 C79.495 19.98 79.495 19.98 80 22 C80.9590625 21.01 80.9590625 21.01 81.9375 20 C85.59058765 17.61431011 87.76502993 17.55926896 92.01171875 17.56640625 C94 18 94 18 96 21 C96 21.99 96 22.98 96 24 C96.40089844 23.566875 96.80179687 23.13375 97.21484375 22.6875 C100.69600045 19.27738731 102.94615608 17.57761382 107.9375 17.625 C109.29409299 17.72012004 110.65015829 17.83471326 112 18 C112 18.66 112 19.32 112 20 C112.66 20 113.32 20 114 20 C114.33 21.65 114.66 23.3 115 25 C115.680625 24.21625 116.36125 23.4325 117.0625 22.625 C120.35332616 19.68426173 122.77308522 19.03679042 127 18 C130.10807986 14.89192014 130.23435986 10.96578626 131.12109375 6.75 C132 4 132 4 135 2 C138.37494032 2.32660713 140.42357133 3.88364787 143 6 C143.37125 5.0409375 143.37125 5.0409375 143.75 4.0625 C145 2 145 2 146.875 1.125 C149.47386397 0.97212565 150.8019253 1.66545464 153 3 C153 5.64 153 8.28 153 11 C152.34 11 151.68 11 151 11 C150.96261719 11.60585938 150.92523438 12.21171875 150.88671875 12.8359375 C150.44406471 18.47760665 149.42114327 23.50539591 147.62109375 28.87109375 C146.85996618 31.11038076 146.85996618 31.11038076 147 34 C149.10258315 32.16002972 149.10258315 32.16002972 149.875 29.8125 C151.70922557 25.22693607 153.49733474 21.2258585 157.375 18.0625 C160.5153774 16.79139486 162.64220658 16.56202695 166 17 C167.875 18.375 167.875 18.375 169 20 C169 20.66 169 21.32 169 22 C169.66 22 170.32 22 171 22 C171.33 24.64 171.66 27.28 172 30 C173.65 29.67 175.3 29.34 177 29 C177.375 31.1875 177.375 31.1875 177 34 C173.11591015 37.79376218 168.63063927 42 163 42 C163 42.66 163 43.32 163 44 C161.56344146 44.08131463 160.1255517 44.13933559 158.6875 44.1875 C157.48673828 44.23970703 157.48673828 44.23970703 156.26171875 44.29296875 C153.49189376 43.93418313 152.83627971 43.00709643 151 41 C148.83700789 41.22757731 148.83700789 41.22757731 147 42 C147 42.66 147 43.32 147 44 C140.375 45.125 140.375 45.125 137 44 C135.65745878 44.29406114 134.32376025 44.6304764 133 45 C130.15330628 45.14569692 127.34689646 45.23066624 124.5 45.25 C123.74074219 45.270625 122.98148438 45.29125 122.19921875 45.3125 C117.72837559 45.34381939 115.33392194 44.98794891 112 42 C111.01 42 110.02 42 109 42 C109 42.66 109 43.32 109 44 C106.36 44 103.72 44 101 44 C101 43.34 101 42.68 101 42 C99.02 41.34 97.04 40.68 95 40 C94.01 40.99 94.01 40.99 93 42 C91.68 42 90.36 42 89 42 C89 42.66 89 43.32 89 44 C87.02 44 85.04 44 83 44 C83 43.34 83 42.68 83 42 C81.02 41.34 79.04 40.68 77 40 C76.38125 40.804375 75.7625 41.60875 75.125 42.4375 C73 45 73 45 71 46 C67.9375 46.125 67.9375 46.125 65 46 C62.95301586 43.95301586 63.29954307 39.69588759 63 37 C62.54625 37.81597656 62.0925 38.63195312 61.625 39.47265625 C58.22955497 42.74178264 56.29654895 42.57422765 51.734375 42.53710938 C50.83203125 42.50423828 49.9296875 42.47136719 49 42.4375 C48.09765625 42.43169922 47.1953125 42.42589844 46.265625 42.41992188 C41.82028246 42.33772249 38.98135737 42.00399961 35 40 C34.401875 40.309375 33.80375 40.61875 33.1875 40.9375 C29.96579917 42.50232612 27.42917458 41.65945665 24 41 C24 37.37 24 33.74 24 30 C20.53881332 36.21238634 18.45179123 40.94292231 18.140625 48.06640625 C18 50 18 50 17 51 C13.92273956 51.41725565 11.96264006 51.66863253 9 51 C6.51689289 49.00112693 4.81616819 46.60066688 3 44 C2.21625 43.030625 1.4325 42.06125 0.625 41.0625 C0.08875 40.381875 -0.4475 39.70125 -1 39 C-1.99 41.475 -1.99 41.475 -3 44 C-3.66 44 -4.32 44 -5 44 C-5.33 44.99 -5.66 45.98 -6 47 C-8.3260857 47.38063221 -10.66055264 47.71269945 -13 48 C-13.33 47.67 -13.66 47.34 -14 47 C-13.86759248 42.07036605 -13.16137791 37.46684769 -11 33 C-12.32 32.67 -13.64 32.34 -15 32 C-15 30.02 -15 28.04 -15 26 C-14.34 26 -13.68 26 -13 26 C-12.67 25.01 -12.34 24.02 -12 23 C-11.22140625 22.63003906 -10.4428125 22.26007813 -9.640625 21.87890625 C-5.68067457 19.06124921 -5.07025388 15.47675997 -3.75 10.9375 C-3.24553934 9.30055065 -2.74036474 7.6638211 -2.234375 6.02734375 C-2.02006836 5.30281006 -1.80576172 4.57827637 -1.58496094 3.83178711 C-1 2 -1 2 0 0 Z M141 10 C141 10.66 141 11.32 141 12 C140.34 12 139.68 12 139 12 C138.3013821 14.91440599 137.6157969 17.83086087 136.9375 20.75 C136.63875977 21.9875 136.63875977 21.9875 136.33398438 23.25 C136.15029297 24.04921875 135.96660156 24.8484375 135.77734375 25.671875 C135.60452881 26.4050293 135.43171387 27.13818359 135.25366211 27.89355469 C134.97575572 30.20132783 135.30190759 31.79916037 136 34 C138.32125169 30.51812247 139.15122685 27.12828961 140.125 23.125 C140.30675781 22.41730469 140.48851562 21.70960938 140.67578125 20.98046875 C141.59922489 17.25197827 142.22613309 13.8442625 142 10 C141.67 10 141.34 10 141 10 Z M11 18 C10.67 18.66 10.34 19.32 10 20 C8.02477154 21.04808041 6.02518491 22.0520411 4 23 C4.99 25.97 5.98 28.94 7 32 C7.66 32 8.32 32 9 32 C9.66 33.32 10.32 34.64 11 36 C11.33 36 11.66 36 12 36 C15.24659712 26.16600283 15.24659712 26.16600283 17 16 C14.49679597 16 13.14881388 16.75230162 11 18 Z M77 24 C78 26 78 26 78 26 Z M162 26 C162.33 27.65 162.66 29.3 163 31 C163.66 30.67 164.32 30.34 165 30 C164.67 28.68 164.34 27.36 164 26 C163.34 26 162.68 26 162 26 Z M25 27 C26 29 26 29 26 29 Z M44.375 28.3125 C42.68416352 30.02482427 42.68416352 30.02482427 43 33 C43.99 32.67 44.98 32.34 46 32 C47.21869929 29.49552484 47.21869929 29.49552484 48 27 C45.91117258 26.7905543 45.91117258 26.7905543 44.375 28.3125 Z M76 27 C77 29 77 29 77 29 Z M125 28 C121.999467 31.07449747 121.999467 31.07449747 121 35 C123.03241727 34.36020151 123.03241727 34.36020151 125 33 C125.81171228 30.44480079 125.81171228 30.44480079 126 28 C125.67 28 125.34 28 125 28 Z M55 29 C55 30.65 55 32.3 55 34 C55.66 33.67 56.32 33.34 57 33 C57 31.68 57 30.36 57 29 C56.34 29 55.68 29 55 29 Z M75 29 C76 32 76 32 76 32 Z M94 29 C93.67 29.66 93.34 30.32 93 31 C91.15234375 31.8515625 91.15234375 31.8515625 88.9375 32.625 C87.83728516 33.01558594 87.83728516 33.01558594 86.71484375 33.4140625 C86.14894531 33.60742188 85.58304687 33.80078125 85 34 C85 34.66 85 35.32 85 36 C88.95820859 35.43454163 91.6659053 34.19097652 95 32 C94.67 31.01 94.34 30.02 94 29 Z M112 30 C113 32 113 32 113 32 Z M103 34 C103 34.33 103 34.66 103 35 C104.9490625 34.814375 104.9490625 34.814375 106.9375 34.625 C107.66839844 34.55539062 108.39929688 34.48578125 109.15234375 34.4140625 C109.76207031 34.27742188 110.37179687 34.14078125 111 34 C111.33 33.34 111.66 32.68 112 32 C108.61976483 32 106.16531063 32.87455622 103 34 Z M133 34 C133.33 34.66 133.66 35.32 134 36 C134.33 35.34 134.66 34.68 135 34 C134.34 34 133.68 34 133 34 Z " fill="#F1F2F2" transform="translate(262,269)"/>
<path d="M0 0 C0 1.65 0 3.3 0 5 C-3.3 5.66 -6.6 6.32 -10 7 C-10.08507812 8.11632812 -10.17015625 9.23265625 -10.2578125 10.3828125 C-10.91032736 15.58690471 -12.82661193 20.08074405 -14.875 24.875 C-17.6686896 31.49594201 -20.06680503 38.07410284 -22 45 C-21.360625 45.474375 -20.72125 45.94875 -20.0625 46.4375 C-17.11213497 50.10310503 -16.90447936 53.37092306 -17 58 C-17.46764033 61.06512771 -18.14761963 64.02019094 -19 67 C-19.99 67 -20.98 67 -22 67 C-22 67.66 -22 68.32 -22 69 C-25.21666704 69.21931821 -27.43362303 69.26828383 -30.375 67.875 C-32 66 -32 66 -32 60 C-37.61 60 -43.22 60 -49 60 C-49 61.98 -49 63.96 -49 66 C-54.27358491 69.06603774 -54.27358491 69.06603774 -57.75 68.75 C-60 68 -60 68 -62 67 C-62.40729228 64.67843403 -62.74438677 62.3431213 -63 60 C-63.66 60 -64.32 60 -65 60 C-64.67 58.35 -64.34 56.7 -64 55 C-50.47 55 -36.94 55 -23 55 C-26.13175686 49.22739701 -26.13175686 49.22739701 -29 48 C-30.59658271 47.7909453 -32.19990689 47.63213411 -33.8046875 47.5 C-34.77575439 47.41806396 -35.74682129 47.33612793 -36.74731445 47.25170898 C-37.77945068 47.16864502 -38.81158691 47.08558105 -39.875 47 C-40.9168042 46.91242432 -41.9586084 46.82484863 -43.03198242 46.73461914 C-47.39389472 46.3693392 -51.75650245 46.01535217 -56.12109375 45.68359375 C-57.17425781 45.60238281 -58.22742188 45.52117187 -59.3125 45.4375 C-60.19550781 45.37433594 -61.07851562 45.31117188 -61.98828125 45.24609375 C-64 45 -64 45 -66 44 C-68.67799414 35.63540103 -69.80287971 23.40863914 -67 15 C-51.04413902 13.53038123 -35.00522721 13.90535482 -19 14 C-18.59007812 13.22914063 -18.18015625 12.45828125 -17.7578125 11.6640625 C-17.21898437 10.66117187 -16.68015625 9.65828125 -16.125 8.625 C-15.59132812 7.62726563 -15.05765625 6.62953125 -14.5078125 5.6015625 C-12.85071099 2.74241844 -11.97899094 1.27194193 -8.75 0.375 C-5.80063445 -0.02718621 -2.97313551 -0.06914269 0 0 Z M-64 19 C-64 19.66 -64 20.32 -64 21 C-63.34 21 -62.68 21 -62 21 C-61.67 21.66 -61.34 22.32 -61 23 C-61 21.68 -61 20.36 -61 19 C-61.99 19 -62.98 19 -64 19 Z M-55 19 C-55 20.32 -55 21.64 -55 23 C-54.34 23 -53.68 23 -53 23 C-53 21.68 -53 20.36 -53 19 C-53.66 19 -54.32 19 -55 19 Z M-47 19 C-46.67 20.32 -46.34 21.64 -46 23 C-45.34 23 -44.68 23 -44 23 C-44 21.68 -44 20.36 -44 19 C-44.99 19 -45.98 19 -47 19 Z M-38 19 C-37.34 20.32 -36.68 21.64 -36 23 C-35.67 21.68 -35.34 20.36 -35 19 C-35.99 19 -36.98 19 -38 19 Z M-30 19 C-29.67 20.32 -29.34 21.64 -29 23 C-28.34 23 -27.68 23 -27 23 C-27 21.68 -27 20.36 -27 19 C-27.99 19 -28.98 19 -30 19 Z M-22 19 C-21.67 20.32 -21.34 21.64 -21 23 C-20.67 21.68 -20.34 20.36 -20 19 C-20.66 19 -21.32 19 -22 19 Z M-55 29 C-54.67 29.99 -54.34 30.98 -54 32 C-53.67 31.01 -53.34 30.02 -53 29 C-53.66 29 -54.32 29 -55 29 Z M-46 29 C-46 30.32 -46 31.64 -46 33 C-45.34 33 -44.68 33 -44 33 C-44 31.68 -44 30.36 -44 29 C-44.66 29 -45.32 29 -46 29 Z M-37 29 C-36 33 -36 33 -36 33 Z M-29 29 C-29 30.32 -29 31.64 -29 33 C-28.34 33 -27.68 33 -27 33 C-27 31.68 -27 30.36 -27 29 C-27.66 29 -28.32 29 -29 29 Z M-26 61 C-26 61.66 -26 62.32 -26 63 C-25.34 62.67 -24.68 62.34 -24 62 C-24.66 61.67 -25.32 61.34 -26 61 Z " fill="#C35F35" transform="translate(255,256)"/>
<path d="M0 0 C1.32 0 2.64 0 4 0 C4 0.99 4 1.98 4 3 C4.66 3 5.32 3 6 3 C6.33 2.34 6.66 1.68 7 1 C6.34 0.67 5.68 0.34 5 0 C10.28 0 15.56 0 21 0 C21.33 1.32 21.66 2.64 22 4 C22.66 4.33 23.32 4.66 24 5 C24 3.35 24 1.7 24 0 C24.99 0 25.98 0 27 0 C27.33 0.66 27.66 1.32 28 2 C29.32 2 30.64 2 32 2 C32.33 1.34 32.66 0.68 33 0 C33.66 0 34.32 0 35 0 C35 2.64 35 5.28 35 8 C26.33333333 8 17.66666667 8 9 8 C21.87 8.495 21.87 8.495 35 9 C35 14.28 35 19.56 35 25 C34.01 24.67 33.02 24.34 32 24 C32 22.68 32 21.36 32 20 C31.01 20 30.02 20 29 20 C29.185625 20.639375 29.37125 21.27875 29.5625 21.9375 C29.706875 22.618125 29.85125 23.29875 30 24 C29 25 29 25 25.6875 25.0625 C23.8621875 25.0315625 23.8621875 25.0315625 22 25 C20.68 25 19.36 25 18 25 C18 25.66 18 26.32 18 27 C15.19625421 28.40187289 13.10474015 27.90114275 10 27.625 C8.9275 27.53476562 7.855 27.44453125 6.75 27.3515625 C4 27 4 27 2 26 C-0.67654075 17.63994062 -0.21031889 8.65812757 0 0 Z M13 1 C13 2.32 13 3.64 13 5 C13.66 5 14.32 5 15 5 C15 3.68 15 2.36 15 1 C14.34 1 13.68 1 13 1 Z M13 11 C13.33 11.99 13.66 12.98 14 14 C14.33 13.01 14.66 12.02 15 11 C14.34 11 13.68 11 13 11 Z M22 11 C22 12.32 22 13.64 22 15 C22.66 15 23.32 15 24 15 C24 13.68 24 12.36 24 11 C23.34 11 22.68 11 22 11 Z M31 11 C32 15 32 15 32 15 Z " fill="#C56034" transform="translate(187,274)"/>
<path d="M0 0 C1.97119141 -0.34057617 1.97119141 -0.34057617 4.3515625 -0.29296875 C5.20234375 -0.28330078 6.053125 -0.27363281 6.9296875 -0.26367188 C7.81914062 -0.23853516 8.70859375 -0.21339844 9.625 -0.1875 C10.97078125 -0.16719727 10.97078125 -0.16719727 12.34375 -0.14648438 C14.56275471 -0.11107473 16.78145176 -0.05726654 19 0 C19 5.28 19 10.56 19 16 C18.01 15.67 17.02 15.34 16 15 C16 13.68 16 12.36 16 11 C15.01 11 14.02 11 13 11 C13.185625 11.639375 13.37125 12.27875 13.5625 12.9375 C13.706875 13.618125 13.85125 14.29875 14 15 C13 16 13 16 9.4375 16.0625 C8.303125 16.041875 7.16875 16.02125 6 16 C6 15.34 6 14.68 6 14 C3.69 14 1.38 14 -1 14 C-1.33 13.01 -1.66 12.02 -2 11 C-2.66 10.67 -3.32 10.34 -4 10 C-4.8125 8.125 -4.8125 8.125 -5 6 C-3.6875 4.4375 -3.6875 4.4375 -2 3 C-1.34 2.01 -0.68 1.02 0 0 Z M6 2 C6 3.32 6 4.64 6 6 C6.66 6 7.32 6 8 6 C8 4.68 8 3.36 8 2 C7.34 2 6.68 2 6 2 Z M15 2 C16 6 16 6 16 6 Z " fill="#B35630" transform="translate(203,283)"/>
<path d="M0 0 C4.66308199 -0.02468646 9.32612608 -0.04285349 13.98925781 -0.05493164 C15.57617861 -0.05996588 17.16309477 -0.06679369 18.75 -0.07543945 C21.02865749 -0.08754482 23.30725376 -0.09323733 25.5859375 -0.09765625 C26.65320572 -0.10539818 26.65320572 -0.10539818 27.74203491 -0.11329651 C32.77225659 -0.11387171 32.77225659 -0.11387171 35 1 C35.804375 1.12375 36.60875 1.2475 37.4375 1.375 C40.28270029 2.06895129 41.32569905 2.62073022 43 5 C43 6.32 43 7.64 43 9 C42.01 9 41.02 9 40 9 C40 9.66 40 10.32 40 11 C36.78333296 11.21931821 34.56637697 11.26828383 31.625 9.875 C30 8 30 8 30 2 C24.39 2 18.78 2 13 2 C13 3.98 13 5.96 13 8 C7.72641509 11.06603774 7.72641509 11.06603774 4.25 10.75 C2 10 2 10 0 9 C-1.28571429 2.57142857 -1.28571429 2.57142857 0 0 Z M36 3 C36 3.66 36 4.32 36 5 C36.66 4.67 37.32 4.34 38 4 C37.34 3.67 36.68 3.34 36 3 Z " fill="#C96D39" transform="translate(193,314)"/>
<path d="M0 0 C1.32 0 2.64 0 4 0 C4 0.99 4 1.98 4 3 C4.66 3 5.32 3 6 3 C6.33 2.34 6.66 1.68 7 1 C6.34 0.67 5.68 0.34 5 0 C10.28 0 15.56 0 21 0 C21.33 1.32 21.66 2.64 22 4 C22.66 4.33 23.32 4.66 24 5 C24 3.35 24 1.7 24 0 C24.99 0 25.98 0 27 0 C27.33 0.66 27.66 1.32 28 2 C29.32 2 30.64 2 32 2 C32.33 1.34 32.66 0.68 33 0 C33.66 0 34.32 0 35 0 C35 2.64 35 5.28 35 8 C25.33333333 8 15.66666667 8 6 8 C6 7.34 6 6.68 6 6 C5.34 6 4.68 6 4 6 C3.67 4.68 3.34 3.36 3 2 C2.34 2 1.68 2 1 2 C0.67 2.99 0.34 3.98 0 5 C0 3.35 0 1.7 0 0 Z M13 1 C13 2.32 13 3.64 13 5 C13.66 5 14.32 5 15 5 C15 3.68 15 2.36 15 1 C14.34 1 13.68 1 13 1 Z " fill="#B6542C" transform="translate(187,274)"/>
<path d="M0 0 C0.85291122 0.02361099 1.70582245 0.04722198 2.58457947 0.07154846 C5.27404101 0.14732685 7.96314972 0.23171293 10.65234375 0.31640625 C12.49021786 0.36971319 14.32810851 0.42245277 16.16601562 0.47460938 C20.64084288 0.60282371 25.11537521 0.73875137 29.58984375 0.87890625 C29.58984375 1.86890625 29.58984375 2.85890625 29.58984375 3.87890625 C28.52056641 3.96978516 28.52056641 3.96978516 27.4296875 4.0625 C17.87384447 4.73811025 17.87384447 4.73811025 8.58984375 6.87890625 C8.25984375 5.88890625 7.92984375 4.89890625 7.58984375 3.87890625 C6.37361328 4.12253906 6.37361328 4.12253906 5.1328125 4.37109375 C1.01857173 4.96078647 -2.94924823 5.02538205 -7.09765625 5.00390625 C-7.85626953 5.00777344 -8.61488281 5.01164062 -9.39648438 5.015625 C-12.65792015 5.00986783 -15.29529373 4.91719376 -18.41015625 3.87890625 C-18.41015625 2.88890625 -18.41015625 1.89890625 -18.41015625 0.87890625 C-12.19340895 0.07227718 -6.25905464 -0.20977998 0 0 Z " fill="#CD6835" transform="translate(206.41015625,270.12109375)"/>
<path d="M0 0 C0.99 0 1.98 0 3 0 C3 1.32 3 2.64 3 4 C5.31 4 7.62 4 10 4 C10 4.66 10 5.32 10 6 C11.98 5.67 13.96 5.34 16 5 C16.33 5.99 16.66 6.98 17 8 C10.76484748 10.33493922 5.60455738 9.90307108 -0.9375 9.125 C-1.90751953 9.02058594 -2.87753906 8.91617187 -3.87695312 8.80859375 C-6.25290796 8.55110111 -8.62676704 8.28130513 -11 8 C-11.33 6.68 -11.66 5.36 -12 4 C-10.35 3.67 -8.7 3.34 -7 3 C-7 3.66 -7 4.32 -7 5 C-3.535 4.505 -3.535 4.505 0 4 C0 2.68 0 1.36 0 0 Z " fill="#CB6D3C" transform="translate(216,294)"/>
<path d="M0 0 C4.41644598 -0.11608127 8.83250017 -0.1872132 13.25 -0.25 C15.13138672 -0.30027344 15.13138672 -0.30027344 17.05078125 -0.3515625 C18.25605469 -0.36445313 19.46132812 -0.37734375 20.703125 -0.390625 C21.81333008 -0.41157227 22.92353516 -0.43251953 24.06738281 -0.45410156 C27 0 27 0 29.39355469 1.77441406 C31 4 31 4 31 8 C30.01 8 29.02 8 28 8 C28 8.66 28 9.32 28 10 C24.78333296 10.21931821 22.56637697 10.26828383 19.625 8.875 C18 7 18 7 18 1 C12.06 1 6.12 1 0 1 C0 0.67 0 0.34 0 0 Z M24 2 C24 2.66 24 3.32 24 4 C24.66 3.67 25.32 3.34 26 3 C25.34 2.67 24.68 2.34 24 2 Z " fill="#BF5F38" transform="translate(205,315)"/>
<path d="M0 0 C1.65 0 3.3 0 5 0 C5 0.66 5 1.32 5 2 C3.68 2 2.36 2 1 2 C1 4.31 1 6.62 1 9 C2.65 8.67 4.3 8.34 6 8 C5.42415568 10.38564077 4.77772405 12.66682784 4 15 C1.69 15.33 -0.62 15.66 -3 16 C-3.36644578 14.44033408 -3.71760862 12.87707349 -4.0625 11.3125 C-4.25972656 10.44238281 -4.45695313 9.57226562 -4.66015625 8.67578125 C-5.02032279 5.83998724 -4.70909969 3.75210018 -4 1 C-3.67 2.32 -3.34 3.64 -3 5 C-2.34 5 -1.68 5 -1 5 C-0.67 3.35 -0.34 1.7 0 0 Z " fill="#B7582F" transform="translate(229,284)"/>
<path d="M0 0 C0.33 0.99 0.66 1.98 1 3 C1.99 2.67 2.98 2.34 4 2 C3.8125 4.8125 3.8125 4.8125 3 8 C-0.91952204 11.30709672 -6.15790458 12.51255892 -11 14 C-10.67 12.68 -10.34 11.36 -10 10 C-8.35 10 -6.7 10 -5 10 C-6.32 9.67 -7.64 9.34 -9 9 C-8.67 8.01 -8.34 7.02 -8 6 C-7.34 6 -6.68 6 -6 6 C-5.34 4.68 -4.68 3.36 -4 2 C-2.68 2.66 -1.36 3.32 0 4 C0 2.68 0 1.36 0 0 Z " fill="#EAECEB" transform="translate(357,290)"/>
<path d="M0 0 C0 1.65 0 3.3 0 5 C-3.3 5.66 -6.6 6.32 -10 7 C-10.33 8.32 -10.66 9.64 -11 11 C-11.33 10.01 -11.66 9.02 -12 8 C-12.99 8 -13.98 8 -15 8 C-13.92598892 5.08482708 -13.22189824 3.22189824 -11 1 C-7.30704038 -0.02582212 -3.81684076 -0.08876374 0 0 Z " fill="#BE7147" transform="translate(255,256)"/>
<path d="M0 0 C0.66 0 1.32 0 2 0 C2.125 7.75 2.125 7.75 1 10 C1.78375 10.12375 2.5675 10.2475 3.375 10.375 C6 11 6 11 8 13 C5.04335481 14.4783226 2.25770263 14.06032783 -1 14 C-1.33 13.01 -1.66 12.02 -2 11 C-2.66 10.67 -3.32 10.34 -4 10 C-4.8125 8.125 -4.8125 8.125 -5 6 C-3.6875 4.4375 -3.6875 4.4375 -2 3 C-1.34 2.01 -0.68 1.02 0 0 Z " fill="#BC5626" transform="translate(203,283)"/>
<path d="M0 0 C1.65 0 3.3 0 5 0 C5 2.97 5 5.94 5 9 C4.01 8.67 3.02 8.34 2 8 C2 6.68 2 5.36 2 4 C1.01 4 0.02 4 -1 4 C-0.7215625 4.9590625 -0.7215625 4.9590625 -0.4375 5.9375 C-0.293125 6.618125 -0.14875 7.29875 0 8 C-1 9 -1 9 -4.5625 9.0625 C-5.696875 9.041875 -6.83125 9.02125 -8 9 C-7.34 7.02 -6.68 5.04 -6 3 C-4.02 3 -2.04 3 0 3 C0 2.01 0 1.02 0 0 Z " fill="#B85624" transform="translate(217,290)"/>
<path d="M0 0 C0.33 0 0.66 0 1 0 C1 1.65 1 3.3 1 5 C2.03386841 4.94670532 2.03386841 4.94670532 3.08862305 4.89233398 C28.37660601 3.62719561 28.37660601 3.62719561 39 5 C39 5.33 39 5.66 39 6 C34.71 6 30.42 6 26 6 C26.495 10.95 26.495 10.95 27 16 C26.34 16 25.68 16 25 16 C25 12.7 25 9.4 25 6 C24.30688721 6.16749756 23.61377441 6.33499512 22.8996582 6.50756836 C19.70429797 7.05021731 16.84275421 7.01698952 13.60546875 6.87890625 C11.80239258 6.80639648 11.80239258 6.80639648 9.96289062 6.73242188 C8.71701172 6.67634766 7.47113281 6.62027344 6.1875 6.5625 C4.92228516 6.51029297 3.65707031 6.45808594 2.35351562 6.40429688 C-0.76458806 6.27486616 -3.88235178 6.13990871 -7 6 C-7 5.67 -7 5.34 -7 5 C-5.02 4.67 -3.04 4.34 -1 4 C-0.67 2.68 -0.34 1.36 0 0 Z " fill="#DA6D3F" transform="translate(197,277)"/>
<path d="M0 0 C0.33 0 0.66 0 1 0 C1 2.31 1 4.62 1 7 C1.66 7.33 2.32 7.66 3 8 C2.01 8 1.02 8 0 8 C-0.33 9.32 -0.66 10.64 -1 12 C-2.98 12.33 -4.96 12.66 -7 13 C-7.80967438 10.08517222 -8.21845993 8.53886783 -7.0625 5.6875 C-6.711875 5.130625 -6.36125 4.57375 -6 4 C-4.68 4 -3.36 4 -2 4 C-1.34 2.68 -0.68 1.36 0 0 Z " fill="#E9EBEA" transform="translate(375,289)"/>
<path d="M0 0 C2 1 2 1 2.74609375 2.703125 C3.09026231 5.81652677 2.20192763 7.84963875 1.0625 10.75 C0.68222656 11.73484375 0.30195313 12.7196875 -0.08984375 13.734375 C-0.39019531 14.48203125 -0.69054687 15.2296875 -1 16 C-1.66 16 -2.32 16 -3 16 C-2.67 13.69 -2.34 11.38 -2 9 C-2.99 9 -3.98 9 -5 9 C-4.125 3.25 -4.125 3.25 -3 1 C-2.01 0.67 -1.02 0.34 0 0 Z " fill="#AA5A34" transform="translate(242,263)"/>
<path d="M0 0 C1.98 0 3.96 0 6 0 C6 3.96 6 7.92 6 12 C4.35 12 2.7 12 1 12 C0.67 8.04 0.34 4.08 0 0 Z " fill="#CB5D29" transform="translate(191,284)"/>
<path d="M0 0 C13.86 0 27.72 0 42 0 C42 0.66 42 1.32 42 2 C39.6739143 2.38063221 37.33944736 2.71269945 35 3 C34.505 2.505 34.505 2.505 34 2 C32.23976984 1.92465574 30.47656501 1.91688 28.71484375 1.9375 C27.08192383 1.94910156 27.08192383 1.94910156 25.41601562 1.9609375 C23.12434549 1.98667214 20.8326787 2.0127064 18.54101562 2.0390625 C12.58422453 2.08103637 6.88819461 1.92250785 1 1 C0.67 1.66 0.34 2.32 0 3 C0 2.01 0 1.02 0 0 Z " fill="#E27641" transform="translate(192,313)"/>
<path d="M0 0 C4 3 4 3 4.64453125 5.015625 C5.01026821 9.88077715 4.9189396 14.20109319 4 19 C2.35 17.35 0.7 15.7 -1 14 C-0.34 13.67 0.32 13.34 1 13 C0.67 12.01 0.34 11.02 0 10 C0.66 10 1.32 10 2 10 C1.34 6.7 0.68 3.4 0 0 Z " fill="#B86A47" transform="translate(233,302)"/>
<path d="M0 0 C1.32 0 2.64 0 4 0 C4 0.66 4 1.32 4 2 C5.98 2 7.96 2 10 2 C9.01 2.66 8.02 3.32 7 4 C7 4.66 7 5.32 7 6 C4.37684968 7.31157516 2.76966564 6.89649988 -0.125 6.5625 C-1.03507813 6.46066406 -1.94515625 6.35882813 -2.8828125 6.25390625 C-3.58148438 6.17011719 -4.28015625 6.08632813 -5 6 C-4.67 5.34 -4.34 4.68 -4 4 C-1.9375 3.375 -1.9375 3.375 0 3 C0 2.01 0 1.02 0 0 Z " fill="#D66533" transform="translate(198,295)"/>
<path d="M0 0 C0.99 0.33 1.98 0.66 3 1 C2.01 2.485 2.01 2.485 1 4 C1.18901701 6.08417527 1.18901701 6.08417527 1.875 8.1875 C2.24625 9.445625 2.6175 10.70375 3 12 C3.66 12 4.32 12 5 12 C5.66 13.65 6.32 15.3 7 17 C5.68 16.67 4.36 16.34 3 16 C2.67 14.35 2.34 12.7 2 11 C1.01 10.67 0.02 10.34 -1 10 C-2.375 7.75 -2.375 7.75 -3 5 C-1.625 2.1875 -1.625 2.1875 0 0 Z " fill="#E8E8E8" transform="translate(266,289)"/>
<path d="M0 0 C1.76923828 0.01353516 1.76923828 0.01353516 3.57421875 0.02734375 C4.47785156 0.03894531 5.38148438 0.05054688 6.3125 0.0625 C6.3125 1.0525 6.3125 2.0425 6.3125 3.0625 C4.58435839 3.25922365 2.85490803 3.44446799 1.125 3.625 C0.16207031 3.72941406 -0.80085937 3.83382813 -1.79296875 3.94140625 C-4.62983377 4.06008751 -6.94173671 3.74015639 -9.6875 3.0625 C-9.6875 2.4025 -9.6875 1.7425 -9.6875 1.0625 C-6.26517028 -0.07827657 -3.60076783 -0.03565117 0 0 Z " fill="#DB7444" transform="translate(229.6875,270.9375)"/>
<path d="M0 0 C0.99 1.485 0.99 1.485 2 3 C4.56282742 3.72965366 4.56282742 3.72965366 7 4 C6.50269348 8.97306516 5.44697666 12.63799813 3 17 C2.67 17 2.34 17 2 17 C2.14049518 15.52031676 2.28754826 14.04125484 2.4375 12.5625 C2.51871094 11.73878906 2.59992188 10.91507812 2.68359375 10.06640625 C3 8 3 8 4 7 C2.68 6.67 1.36 6.34 0 6 C0 4.02 0 2.04 0 0 Z " fill="#DFE0E0" transform="translate(247,295)"/>
<path d="M0 0 C0.66 0 1.32 0 2 0 C2 2.64 2 5.28 2 8 C-0.33294775 8.04241723 -2.66702567 8.04092937 -5 8 C-6 7 -6 7 -6.0625 4.4375 C-6.041875 3.633125 -6.02125 2.82875 -6 2 C-4.68 2.33 -3.36 2.66 -2 3 C-1.34 2.01 -0.68 1.02 0 0 Z " fill="#B25B31" transform="translate(220,274)"/>
<path d="M0 0 C-0.33 1.65 -0.66 3.3 -1 5 C-1.66 5 -2.32 5 -3 5 C-3.33 5.99 -3.66 6.98 -4 8 C-6.31 8.33 -8.62 8.66 -11 9 C-11.33 7.68 -11.66 6.36 -12 5 C-11.401875 5.185625 -10.80375 5.37125 -10.1875 5.5625 C-7.83591238 6.22093687 -7.83591238 6.22093687 -5 5 C-4.6278958 3.67696283 -4.29369827 2.34262065 -4 1 C-2 0 -2 0 0 0 Z " fill="#E0E1E0" transform="translate(260,308)"/>
<path d="M0 0 C0.99 0 1.98 0 3 0 C3 0.99 3 1.98 3 3 C3.99 3.33 4.98 3.66 6 4 C4.68 4.33 3.36 4.66 2 5 C2.33 6.32 2.66 7.64 3 9 C0.36 9.66 -2.28 10.32 -5 11 C-5.33 10.34 -5.66 9.68 -6 9 C-5.34 9 -4.68 9 -4 9 C-4 8.01 -4 7.02 -4 6 C-2.35 6 -0.7 6 1 6 C0.67 4.02 0.34 2.04 0 0 Z " fill="#D86F37" transform="translate(196,290)"/>
<path d="M0 0 C2.64 0 5.28 0 8 0 C8.33 1.32 8.66 2.64 9 4 C5.21812119 5.83691257 3.05431692 6.15837626 -1 5 C-0.67 3.35 -0.34 1.7 0 0 Z " fill="#D15B27" transform="translate(193,314)"/>
<path d="M0 0 C2.86724686 0.57344937 3.8614515 0.8614515 6 3 C6 4.32 6 5.64 6 7 C5.01 7 4.02 7 3 7 C3 7.66 3 8.32 3 9 C1.35 9 -0.3 9 -2 9 C-1.67 8.34 -1.34 7.68 -1 7 C-0.01 7 0.98 7 2 7 C1.505 5.824375 1.505 5.824375 1 4.625 C0 2 0 2 0 0 Z " fill="#A44E25" transform="translate(230,316)"/>
<path d="M0 0 C0.99 0 1.98 0 3 0 C3 0.66 3 1.32 3 2 C3.66 2 4.32 2 5 2 C5 1.34 5 0.68 5 0 C7.31 0 9.62 0 12 0 C12 0.99 12 1.98 12 3 C10.02 3 8.04 3 6 3 C6 3.66 6 4.32 6 5 C3.69 4.34 1.38 3.68 -1 3 C-0.67 2.01 -0.34 1.02 0 0 Z " fill="#C96031" transform="translate(205,290)"/>
<path d="M0 0 C0.99 0.33 1.98 0.66 3 1 C3 1.66 3 2.32 3 3 C3.66 3.66 4.32 4.32 5 5 C3.68 5.33 2.36 5.66 1 6 C0.67 7.32 0.34 8.64 0 10 C-0.33 9.01 -0.66 8.02 -1 7 C-1.99 7 -2.98 7 -4 7 C-2.92598892 4.08482708 -2.22189824 2.22189824 0 0 Z " fill="#B9613F" transform="translate(244,257)"/>
<path d="M0 0 C2.35448165 2.55068845 2.98327924 3.71017358 3.1875 7.25 C3.125625 8.1575 3.06375 9.065 3 10 C-1.02550319 8.6581656 -1.88285636 6.5772427 -4 3 C-4 2.34 -4 1.68 -4 1 C-2.68 0.67 -1.36 0.34 0 0 Z " fill="#BB5A33" transform="translate(232,302)"/>
<path d="M0 0 C1.98 0 3.96 0 6 0 C6 0.66 6 1.32 6 2 C5.34 2 4.68 2 4 2 C4 3.32 4 4.64 4 6 C4.66 6.33 5.32 6.66 6 7 C5.67 7.66 5.34 8.32 5 9 C4.34 9 3.68 9 3 9 C3 8.34 3 7.68 3 7 C2.01 7 1.02 7 0 7 C0 4.69 0 2.38 0 0 Z " fill="#BA5A32" transform="translate(205,283)"/>
<path d="M0 0 C4.62 0 9.24 0 14 0 C14 0.66 14 1.32 14 2 C9.71 2 5.42 2 1 2 C1 2.99 1 3.98 1 5 C0.34 5 -0.32 5 -1 5 C-0.67 3.35 -0.34 1.7 0 0 Z " fill="#B86E47" transform="translate(191,311)"/>
<path d="M0 0 C2.8992226 0.46761655 3.86675182 0.86675182 6 3 C5.67 3.66 5.34 4.32 5 5 C5.99 5.33 6.98 5.66 8 6 C5.6875 6.625 5.6875 6.625 3 7 C0 5 0 5 -0.75 2.9375 C-0.8325 2.298125 -0.915 1.65875 -1 1 C-0.67 0.67 -0.34 0.34 0 0 Z " fill="#BC662F" transform="translate(193,318)"/>
<path d="M0 0 C0.66 0 1.32 0 2 0 C2 0.66 2 1.32 2 2 C2.66 2 3.32 2 4 2 C4 3.65 4 5.3 4 7 C1.36 6.67 -1.28 6.34 -4 6 C-3.01 5.67 -2.02 5.34 -1 5 C-0.67 3.35 -0.34 1.7 0 0 Z " fill="#B25A27" transform="translate(229,274)"/>
<path d="M0 0 C3.96 0 7.92 0 12 0 C11.01 0.33 10.02 0.66 9 1 C9 1.99 9 2.98 9 4 C8.34 4.66 7.68 5.32 7 6 C4.875 5.625 4.875 5.625 3 5 C3 4.34 3 3.68 3 3 C3.66 3 4.32 3 5 3 C5 2.34 5 1.68 5 1 C3.35 1 1.7 1 0 1 C0 0.67 0 0.34 0 0 Z " fill="#C8723B" transform="translate(211,271)"/>
<path d="M0 0 C6.93 0 13.86 0 21 0 C21 1.65 21 3.3 21 5 C20.34 5 19.68 5 19 5 C18.67 3.68 18.34 2.36 18 1 C12.06 1 6.12 1 0 1 C0 0.67 0 0.34 0 0 Z " fill="#A65528" transform="translate(205,315)"/>
<path d="M0 0 C0.33 0.99 0.66 1.98 1 3 C-1.31 3.66 -3.62 4.32 -6 5 C-6.33 4.34 -6.66 3.68 -7 3 C-9.01669827 1.86649466 -9.01669827 1.86649466 -11 1 C-7.26513121 0.4254048 -3.78706732 0 0 0 Z " fill="#D87741" transform="translate(232,299)"/>
<path d="M0 0 C0.66 0 1.32 0 2 0 C2.33 4.95 2.66 9.9 3 15 C1.68 15 0.36 15 -1 15 C-1 13.35 -1 11.7 -1 10 C-0.34 10 0.32 10 1 10 C0.67 9.34 0.34 8.68 0 8 C-0.13415472 5.3276379 -0.04318541 2.67749512 0 0 Z " fill="#C55F2E" transform="translate(223,283)"/>
<path d="M0 0 C0.99 0 1.98 0 3 0 C3.12375 0.78375 3.2475 1.5675 3.375 2.375 C3.79117993 5.14057822 3.79117993 5.14057822 6 7 C4.34385343 7.38218767 2.67542976 7.71395102 1 8 C0 7 0 7 -0.0625 3.4375 C-0.041875 2.303125 -0.02125 1.16875 0 0 Z " fill="#C4622D" transform="translate(222,274)"/>
<path d="M0 0 C0.96392528 2.99887865 1.35886391 5.08814875 0 8 C-2.5625 9.25 -2.5625 9.25 -5 10 C-5.66 9.34 -6.32 8.68 -7 8 C-5.824375 7.4121875 -5.824375 7.4121875 -4.625 6.8125 C-1.64843582 4.75725331 -1.01176437 3.40320742 0 0 Z " fill="#E3E3E3" transform="translate(257,284)"/>
<path d="M0 0 C2 1 2 1 2.75 2.75 C3.07158914 5.64430225 2.22746624 7.40065973 1 10 C0.34 9.67 -0.32 9.34 -1 9 C-1 8.01 -1 7.02 -1 6 C-1.94978897 3.84971696 -1.94978897 3.84971696 -3 2 C-2.01 1.34 -1.02 0.68 0 0 Z " fill="#B8542F" transform="translate(242,263)"/>
<path d="M0 0 C0.33 0.99 0.66 1.98 1 3 C4.35433109 2.05066101 7.69246505 1.10251165 11 0 C9.25 3.875 9.25 3.875 7 5 C5.00039988 5.039992 2.99952758 5.04346799 1 5 C0.67 3.35 0.34 1.7 0 0 Z " fill="#E4EAEB" transform="translate(326,310)"/>
<path d="M0 0 C2.0625 0.4375 2.0625 0.4375 4 1 C3.34 1 2.68 1 2 1 C2 2.32 2 3.64 2 5 C2.66 5 3.32 5 4 5 C4 5.99 4 6.98 4 8 C2.68 8 1.36 8 0 8 C-0.38063221 5.6739143 -0.71269945 3.33944736 -1 1 C-0.67 0.67 -0.34 0.34 0 0 Z " fill="#BC5D34" transform="translate(198,274)"/>
<path d="M0 0 C0.99 0 1.98 0 3 0 C3.66 1.32 4.32 2.64 5 4 C3.02 4.66 1.04 5.32 -1 6 C-0.67 4.02 -0.34 2.04 0 0 Z " fill="#D76A3C" transform="translate(231,287)"/>
<path d="M0 0 C0.66 0 1.32 0 2 0 C2 2.31 2 4.62 2 7 C0.68 6.67 -0.64 6.34 -2 6 C-1.125 1.125 -1.125 1.125 0 0 Z " fill="#8E3F12" transform="translate(203,283)"/>
<path d="M0 0 C0.99 0 1.98 0 3 0 C3 2.31 3 4.62 3 7 C1.35 6.67 -0.3 6.34 -2 6 C-1.34 5.67 -0.68 5.34 0 5 C0 3.35 0 1.7 0 0 Z " fill="#AD4D21" transform="translate(211,274)"/>
<path d="M0 0 C0.99 0 1.98 0 3 0 C3 2.31 3 4.62 3 7 C2.01 7.33 1.02 7.66 0 8 C0 5.36 0 2.72 0 0 Z " fill="#A94B23" transform="translate(202,274)"/>
<path d="M0 0 C3.375 -0.1875 3.375 -0.1875 7 0 C7.66 0.99 8.32 1.98 9 3 C5.7 2.67 2.4 2.34 -1 2 C-0.67 1.34 -0.34 0.68 0 0 Z " fill="#AC4929" transform="translate(194,299)"/>
<path d="M0 0 C0 0.66 0 1.32 0 2 C-2.91482778 2.80967438 -4.46113217 3.21845993 -7.3125 2.0625 C-7.869375 1.711875 -8.42625 1.36125 -9 1 C-5.57367167 -0.61798838 -3.61944899 -1.34053666 0 0 Z " fill="#EBEDEC" transform="translate(318,287)"/>
<path d="M0 0 C-0.33 0.66 -0.66 1.32 -1 2 C-3.28515625 2.4140625 -3.28515625 2.4140625 -6.0625 2.625 C-6.98160156 2.69976562 -7.90070313 2.77453125 -8.84765625 2.8515625 C-9.55792969 2.90054687 -10.26820313 2.94953125 -11 3 C-4.33333333 -1.44444444 -4.33333333 -1.44444444 0 0 Z " fill="#DDDEDF" transform="translate(400,311)"/>
<path d="M0 0 C1.32 0 2.64 0 4 0 C4 1.65 4 3.3 4 5 C2.68 5.33 1.36 5.66 0 6 C0 4.02 0 2.04 0 0 Z " fill="#B95222" transform="translate(193,284)"/>
<path d="M0 0 C0.66 0.33 1.32 0.66 2 1 C1.67 2.65 1.34 4.3 1 6 C-0.65 6 -2.3 6 -4 6 C-4 5.34 -4 4.68 -4 4 C-3.01 4 -2.02 4 -1 4 C-0.67 2.68 -0.34 1.36 0 0 Z " fill="#E6E6E6" transform="translate(278,314)"/>
<path d="M0 0 C0.33 0.66 0.66 1.32 1 2 C2.98 2 4.96 2 7 2 C7 2.33 7 2.66 7 3 C3.7 3.66 0.4 4.32 -3 5 C-3.33 3.68 -3.66 2.36 -4 1 C-2.68 0.67 -1.36 0.34 0 0 Z " fill="#DF7B3C" transform="translate(208,297)"/>
<path d="M0 0 C1.32 0 2.64 0 4 0 C3.67 1.98 3.34 3.96 3 6 C1.35 6 -0.3 6 -2 6 C-1.67 5.34 -1.34 4.68 -1 4 C-0.01 4 0.98 4 2 4 C1.34 2.68 0.68 1.36 0 0 Z " fill="#B16D1C" transform="translate(230,319)"/>
<path d="M0 0 C1.2065625 0.0309375 1.2065625 0.0309375 2.4375 0.0625 C2.4375 0.7225 2.4375 1.3825 2.4375 2.0625 C1.1175 2.0625 -0.2025 2.0625 -1.5625 2.0625 C-1.5625 3.3825 -1.5625 4.7025 -1.5625 6.0625 C-2.2225 6.0625 -2.8825 6.0625 -3.5625 6.0625 C-3.605221 4.39638095 -3.60313832 2.72867115 -3.5625 1.0625 C-2.5625 0.0625 -2.5625 0.0625 0 0 Z " fill="#AD5123" transform="translate(231.5625,283.9375)"/>
<path d="M0 0 C-0.33 0.66 -0.66 1.32 -1 2 C-2.32 2 -3.64 2 -5 2 C-5 2.66 -5 3.32 -5 4 C-5.66 4 -6.32 4 -7 4 C-6.625 2.0625 -6.625 2.0625 -6 0 C-3.50907189 -1.24546405 -2.58919267 -0.7767578 0 0 Z " fill="#DFE1E0" transform="translate(401,272)"/>
<path d="M0 0 C0.66 0 1.32 0 2 0 C2 0.66 2 1.32 2 2 C2.66 2 3.32 2 4 2 C4 3.32 4 4.64 4 6 C3.01 6.33 2.02 6.66 1 7 C0 2.25 0 2.25 0 0 Z " fill="#EAEAEA" transform="translate(267,269)"/>
<path d="M0 0 C1.61949011 2.57213134 2.04408751 3.67669159 1.625 6.75 C1.41875 7.4925 1.2125 8.235 1 9 C0.01 8.67 -0.98 8.34 -2 8 C-1.125 1.125 -1.125 1.125 0 0 Z " fill="#E6E7E7" transform="translate(336,297)"/>
<path d="M0 0 C2.86724686 0.57344937 3.8614515 0.8614515 6 3 C3.69 3.33 1.38 3.66 -1 4 C-0.67 2.68 -0.34 1.36 0 0 Z " fill="#CB5929" transform="translate(205,293)"/>
<path d="M0 0 C4 4.625 4 4.625 4 8 C3.01 8.33 2.02 8.66 1 9 C0.67 6.03 0.34 3.06 0 0 Z " fill="#CF764E" transform="translate(187,286)"/>
<path d="M0 0 C0.93423645 3.01031744 1.04449911 3.86650268 0 7 C-0.99 7 -1.98 7 -3 7 C-2.625 4.0625 -2.625 4.0625 -2 1 C-1.34 0.67 -0.68 0.34 0 0 Z " fill="#E5E9E8" transform="translate(399,287)"/>
<path d="M0 0 C0.99 0 1.98 0 3 0 C3 1.98 3 3.96 3 6 C2.01 6 1.02 6 0 6 C0 4.02 0 2.04 0 0 Z " fill="#A54620" transform="translate(211,284)"/>
<path d="M0 0 C1.98 0 3.96 0 6 0 C6 1.65 6 3.3 6 5 C5.01 4.67 4.02 4.34 3 4 C3.33 3.34 3.66 2.68 4 2 C2.68 1.67 1.36 1.34 0 1 C0 0.67 0 0.34 0 0 Z " fill="#9B5F44" transform="translate(249,256)"/>
<path d="M0 0 C3 0 3 0 4.6875 1.375 C6 3 6 3 6 5 C3.69 4.34 1.38 3.68 -1 3 C-0.67 2.01 -0.34 1.02 0 0 Z " fill="#CE6739" transform="translate(205,290)"/>
</svg>
